<?xml version="1.0" encoding="utf-8"?>
<!-- Generator: Adobe Illustrator 26.3.1, SVG Export Plug-In . SVG Version: 6.00 Build 0)  -->
<svg version="1.1" id="Calque_1" xmlns="http://www.w3.org/2000/svg" xmlns:xlink="http://www.w3.org/1999/xlink" x="0px" y="0px"
	 viewBox="0 0 104.9 104.9" style="enable-background:new 0 0 104.9 104.9;" xml:space="preserve">
<style type="text/css">
	.st0{fill-rule:evenodd;clip-rule:evenodd;fill:#FFFFFF;}
	.st1{fill-rule:evenodd;clip-rule:evenodd;fill:#221E1B;}
</style>
<rect x="11.3" y="11.3" width="2.8" height="2.8"/>
<rect x="14.2" y="11.3" width="2.8" height="2.8"/>
<rect x="17" y="11.3" width="2.8" height="2.8"/>
<rect x="19.8" y="11.3" width="2.8" height="2.8"/>
<rect x="22.7" y="11.3" width="2.8" height="2.8"/>
<rect x="25.5" y="11.3" width="2.8" height="2.8"/>
<rect x="28.3" y="11.3" width="2.8" height="2.8"/>
<rect x="34" y="11.3" width="2.8" height="2.8"/>
<rect x="36.9" y="11.3" width="2.8" height="2.8"/>
<rect x="39.7" y="11.3" width="2.8" height="2.8"/>
<rect x="45.4" y="11.3" width="2.8" height="2.8"/>
<rect x="48.2" y="11.3" width="2.8" height="2.8"/>
<rect x="51" y="11.3" width="2.8" height="2.8"/>
<rect x="56.7" y="11.3" width="2.8" height="2.8"/>
<rect x="62.4" y="11.3" width="2.8" height="2.8"/>
<rect x="73.7" y="11.3" width="2.8" height="2.8"/>
<rect x="76.5" y="11.3" width="2.8" height="2.8"/>
<rect x="79.4" y="11.3" width="2.8" height="2.8"/>
<rect x="82.2" y="11.3" width="2.8" height="2.8"/>
<rect x="85" y="11.3" width="2.8" height="2.8"/>
<rect x="87.9" y="11.3" width="2.8" height="2.8"/>
<rect x="90.7" y="11.3" width="2.8" height="2.8"/>
<rect x="11.3" y="14.2" width="2.8" height="2.8"/>
<rect x="28.3" y="14.2" width="2.8" height="2.8"/>
<rect x="36.9" y="14.2" width="2.8" height="2.8"/>
<rect x="42.5" y="14.2" width="2.8" height="2.8"/>
<rect x="48.2" y="14.2" width="2.8" height="2.8"/>
<rect x="51" y="14.2" width="2.8" height="2.8"/>
<rect x="53.9" y="14.2" width="2.8" height="2.8"/>
<rect x="65.2" y="14.2" width="2.8" height="2.8"/>
<rect x="68" y="14.2" width="2.8" height="2.8"/>
<rect x="73.7" y="14.2" width="2.8" height="2.8"/>
<rect x="90.7" y="14.2" width="2.8" height="2.8"/>
<rect x="11.3" y="17" width="2.8" height="2.8"/>
<rect x="17" y="17" width="2.8" height="2.8"/>
<rect x="19.8" y="17" width="2.8" height="2.8"/>
<rect x="22.7" y="17" width="2.8" height="2.8"/>
<rect x="28.3" y="17" width="2.8" height="2.8"/>
<rect x="42.5" y="17" width="2.8" height="2.8"/>
<rect x="51" y="17" width="2.8" height="2.8"/>
<rect x="59.5" y="17" width="2.8" height="2.8"/>
<rect x="62.4" y="17" width="2.8" height="2.8"/>
<rect x="65.2" y="17" width="2.8" height="2.8"/>
<rect x="68" y="17" width="2.8" height="2.8"/>
<rect x="73.7" y="17" width="2.8" height="2.8"/>
<rect x="79.4" y="17" width="2.8" height="2.8"/>
<rect x="82.2" y="17" width="2.8" height="2.8"/>
<rect x="85" y="17" width="2.8" height="2.8"/>
<rect x="90.7" y="17" width="2.8" height="2.8"/>
<rect x="11.3" y="19.8" width="2.8" height="2.8"/>
<rect x="17" y="19.8" width="2.8" height="2.8"/>
<rect x="19.8" y="19.8" width="2.8" height="2.8"/>
<rect x="22.7" y="19.8" width="2.8" height="2.8"/>
<rect x="28.3" y="19.8" width="2.8" height="2.8"/>
<rect x="34" y="19.8" width="2.8" height="2.8"/>
<rect x="42.5" y="19.8" width="2.8" height="2.8"/>
<rect x="62.4" y="19.8" width="2.8" height="2.8"/>
<rect x="73.7" y="19.8" width="2.8" height="2.8"/>
<rect x="79.4" y="19.8" width="2.8" height="2.8"/>
<rect x="82.2" y="19.8" width="2.8" height="2.8"/>
<rect x="85" y="19.8" width="2.8" height="2.8"/>
<rect x="90.7" y="19.8" width="2.8" height="2.8"/>
<rect x="11.3" y="22.7" width="2.8" height="2.8"/>
<rect x="17" y="22.7" width="2.8" height="2.8"/>
<rect x="19.8" y="22.7" width="2.8" height="2.8"/>
<rect x="22.7" y="22.7" width="2.8" height="2.8"/>
<rect x="28.3" y="22.7" width="2.8" height="2.8"/>
<rect x="34" y="22.7" width="2.8" height="2.8"/>
<rect x="39.7" y="22.7" width="2.8" height="2.8"/>
<rect x="59.5" y="22.7" width="2.8" height="2.8"/>
<rect x="62.4" y="22.7" width="2.8" height="2.8"/>
<rect x="73.7" y="22.7" width="2.8" height="2.8"/>
<rect x="79.4" y="22.7" width="2.8" height="2.8"/>
<rect x="82.2" y="22.7" width="2.8" height="2.8"/>
<rect x="85" y="22.7" width="2.8" height="2.8"/>
<rect x="90.7" y="22.7" width="2.8" height="2.8"/>
<rect x="11.3" y="25.5" width="2.8" height="2.8"/>
<rect x="28.3" y="25.5" width="2.8" height="2.8"/>
<rect x="34" y="25.5" width="2.8" height="2.8"/>
<rect x="36.9" y="25.5" width="2.8" height="2.8"/>
<rect x="39.7" y="25.5" width="2.8" height="2.8"/>
<rect x="42.5" y="25.5" width="2.8" height="2.8"/>
<rect x="56.7" y="25.5" width="2.8" height="2.8"/>
<rect x="59.5" y="25.5" width="2.8" height="2.8"/>
<rect x="65.2" y="25.5" width="2.8" height="2.8"/>
<rect x="73.7" y="25.5" width="2.8" height="2.8"/>
<rect x="90.7" y="25.5" width="2.8" height="2.8"/>
<rect x="11.3" y="28.3" width="2.8" height="2.8"/>
<rect x="14.2" y="28.3" width="2.8" height="2.8"/>
<rect x="17" y="28.3" width="2.8" height="2.8"/>
<rect x="19.8" y="28.3" width="2.8" height="2.8"/>
<rect x="22.7" y="28.3" width="2.8" height="2.8"/>
<rect x="25.5" y="28.3" width="2.8" height="2.8"/>
<rect x="28.3" y="28.3" width="2.8" height="2.8"/>
<rect x="34" y="28.3" width="2.8" height="2.8"/>
<rect x="39.7" y="28.3" width="2.8" height="2.8"/>
<rect x="45.4" y="28.3" width="2.8" height="2.8"/>
<rect x="51" y="28.3" width="2.8" height="2.8"/>
<rect x="56.7" y="28.3" width="2.8" height="2.8"/>
<rect x="62.4" y="28.3" width="2.8" height="2.8"/>
<rect x="68" y="28.3" width="2.8" height="2.8"/>
<rect x="73.7" y="28.3" width="2.8" height="2.8"/>
<rect x="76.5" y="28.3" width="2.8" height="2.8"/>
<rect x="79.4" y="28.3" width="2.8" height="2.8"/>
<rect x="82.2" y="28.3" width="2.8" height="2.8"/>
<rect x="85" y="28.3" width="2.8" height="2.8"/>
<rect x="87.9" y="28.3" width="2.8" height="2.8"/>
<rect x="90.7" y="28.3" width="2.8" height="2.8"/>
<rect x="34" y="31.2" width="2.8" height="2.8"/>
<rect x="48.2" y="31.2" width="2.8" height="2.8"/>
<rect x="53.9" y="31.2" width="2.8" height="2.8"/>
<rect x="56.7" y="31.2" width="2.8" height="2.8"/>
<rect x="59.5" y="31.2" width="2.8" height="2.8"/>
<rect x="11.3" y="34" width="2.8" height="2.8"/>
<rect x="22.7" y="34" width="2.8" height="2.8"/>
<rect x="28.3" y="34" width="2.8" height="2.8"/>
<rect x="31.2" y="34" width="2.8" height="2.8"/>
<rect x="34" y="34" width="2.8" height="2.8"/>
<rect x="36.9" y="34" width="2.8" height="2.8"/>
<rect x="42.5" y="34" width="2.8" height="2.8"/>
<rect x="45.4" y="34" width="2.8" height="2.8"/>
<rect x="48.2" y="34" width="2.8" height="2.8"/>
<rect x="59.5" y="34" width="2.8" height="2.8"/>
<rect x="65.2" y="34" width="2.8" height="2.8"/>
<rect x="68" y="34" width="2.8" height="2.8"/>
<rect x="70.9" y="34" width="2.8" height="2.8"/>
<rect x="73.7" y="34" width="2.8" height="2.8"/>
<rect x="76.5" y="34" width="2.8" height="2.8"/>
<rect x="79.4" y="34" width="2.8" height="2.8"/>
<rect x="82.2" y="34" width="2.8" height="2.8"/>
<rect x="90.7" y="34" width="2.8" height="2.8"/>
<rect x="11.3" y="36.9" width="2.8" height="2.8"/>
<rect x="14.2" y="36.9" width="2.8" height="2.8"/>
<rect x="17" y="36.9" width="2.8" height="2.8"/>
<rect x="22.7" y="36.9" width="2.8" height="2.8"/>
<rect x="31.2" y="36.9" width="2.8" height="2.8"/>
<rect x="36.9" y="36.9" width="2.8" height="2.8"/>
<rect x="39.7" y="36.9" width="2.8" height="2.8"/>
<rect x="48.2" y="36.9" width="2.8" height="2.8"/>
<rect x="51" y="36.9" width="2.8" height="2.8"/>
<rect x="56.7" y="36.9" width="2.8" height="2.8"/>
<rect x="62.4" y="36.9" width="2.8" height="2.8"/>
<rect x="70.9" y="36.9" width="2.8" height="2.8"/>
<rect x="73.7" y="36.9" width="2.8" height="2.8"/>
<rect x="76.5" y="36.9" width="2.8" height="2.8"/>
<rect x="79.4" y="36.9" width="2.8" height="2.8"/>
<rect x="82.2" y="36.9" width="2.8" height="2.8"/>
<rect x="85" y="36.9" width="2.8" height="2.8"/>
<rect x="87.9" y="36.9" width="2.8" height="2.8"/>
<rect x="90.7" y="36.9" width="2.8" height="2.8"/>
<rect x="11.3" y="39.7" width="2.8" height="2.8"/>
<rect x="14.2" y="39.7" width="2.8" height="2.8"/>
<rect x="17" y="39.7" width="2.8" height="2.8"/>
<rect x="19.8" y="39.7" width="2.8" height="2.8"/>
<rect x="22.7" y="39.7" width="2.8" height="2.8"/>
<rect x="25.5" y="39.7" width="2.8" height="2.8"/>
<rect x="28.3" y="39.7" width="2.8" height="2.8"/>
<rect x="34" y="39.7" width="2.8" height="2.8"/>
<rect x="39.7" y="39.7" width="2.8" height="2.8"/>
<rect x="45.4" y="39.7" width="2.8" height="2.8"/>
<rect x="56.7" y="39.7" width="2.8" height="2.8"/>
<rect x="59.5" y="39.7" width="2.8" height="2.8"/>
<rect x="62.4" y="39.7" width="2.8" height="2.8"/>
<rect x="68" y="39.7" width="2.8" height="2.8"/>
<rect x="73.7" y="39.7" width="2.8" height="2.8"/>
<rect x="76.5" y="39.7" width="2.8" height="2.8"/>
<rect x="90.7" y="39.7" width="2.8" height="2.8"/>
<rect x="11.3" y="42.5" width="2.8" height="2.8"/>
<rect x="14.2" y="42.5" width="2.8" height="2.8"/>
<rect x="17" y="42.5" width="2.8" height="2.8"/>
<rect x="25.5" y="42.5" width="2.8" height="2.8"/>
<rect x="34" y="42.5" width="2.8" height="2.8"/>
<rect x="36.9" y="42.5" width="2.8" height="2.8"/>
<rect x="42.5" y="42.5" width="2.8" height="2.8"/>
<rect x="51" y="42.5" width="2.8" height="2.8"/>
<rect x="59.5" y="42.5" width="2.8" height="2.8"/>
<rect x="62.4" y="42.5" width="2.8" height="2.8"/>
<rect x="65.2" y="42.5" width="2.8" height="2.8"/>
<rect x="73.7" y="42.5" width="2.8" height="2.8"/>
<rect x="76.5" y="42.5" width="2.8" height="2.8"/>
<rect x="79.4" y="42.5" width="2.8" height="2.8"/>
<rect x="82.2" y="42.5" width="2.8" height="2.8"/>
<rect x="87.9" y="42.5" width="2.8" height="2.8"/>
<rect x="90.7" y="42.5" width="2.8" height="2.8"/>
<rect x="11.3" y="45.4" width="2.8" height="2.8"/>
<rect x="17" y="45.4" width="2.8" height="2.8"/>
<rect x="19.8" y="45.4" width="2.8" height="2.8"/>
<rect x="22.7" y="45.4" width="2.8" height="2.8"/>
<rect x="28.3" y="45.4" width="2.8" height="2.8"/>
<rect x="36.9" y="45.4" width="2.8" height="2.8"/>
<rect x="45.4" y="45.4" width="2.8" height="2.8"/>
<rect x="48.2" y="45.4" width="2.8" height="2.8"/>
<rect x="51" y="45.4" width="2.8" height="2.8"/>
<rect x="53.9" y="45.4" width="2.8" height="2.8"/>
<rect x="56.7" y="45.4" width="2.8" height="2.8"/>
<rect x="59.5" y="45.4" width="2.8" height="2.8"/>
<rect x="65.2" y="45.4" width="2.8" height="2.8"/>
<rect x="70.9" y="45.4" width="2.8" height="2.8"/>
<rect x="87.9" y="45.4" width="2.8" height="2.8"/>
<rect x="11.3" y="48.2" width="2.8" height="2.8"/>
<rect x="14.2" y="48.2" width="2.8" height="2.8"/>
<rect x="19.8" y="48.2" width="2.8" height="2.8"/>
<rect x="36.9" y="48.2" width="2.8" height="2.8"/>
<rect x="42.5" y="48.2" width="2.8" height="2.8"/>
<rect x="45.4" y="48.2" width="2.8" height="2.8"/>
<rect x="59.5" y="48.2" width="2.8" height="2.8"/>
<rect x="62.4" y="48.2" width="2.8" height="2.8"/>
<rect x="65.2" y="48.2" width="2.8" height="2.8"/>
<rect x="73.7" y="48.2" width="2.8" height="2.8"/>
<rect x="76.5" y="48.2" width="2.8" height="2.8"/>
<rect x="79.4" y="48.2" width="2.8" height="2.8"/>
<rect x="82.2" y="48.2" width="2.8" height="2.8"/>
<rect x="85" y="48.2" width="2.8" height="2.8"/>
<rect x="87.9" y="48.2" width="2.8" height="2.8"/>
<rect x="90.7" y="48.2" width="2.8" height="2.8"/>
<rect x="19.8" y="51" width="2.8" height="2.8"/>
<rect x="22.7" y="51" width="2.8" height="2.8"/>
<rect x="25.5" y="51" width="2.8" height="2.8"/>
<rect x="28.3" y="51" width="2.8" height="2.8"/>
<rect x="34" y="51" width="2.8" height="2.8"/>
<rect x="36.9" y="51" width="2.8" height="2.8"/>
<rect x="42.5" y="51" width="2.8" height="2.8"/>
<rect x="48.2" y="51" width="2.8" height="2.8"/>
<rect x="51" y="51" width="2.8" height="2.8"/>
<rect x="53.9" y="51" width="2.8" height="2.8"/>
<rect x="59.5" y="51" width="2.8" height="2.8"/>
<rect x="68" y="51" width="2.8" height="2.8"/>
<rect x="70.9" y="51" width="2.8" height="2.8"/>
<rect x="73.7" y="51" width="2.8" height="2.8"/>
<rect x="76.5" y="51" width="2.8" height="2.8"/>
<rect x="82.2" y="51" width="2.8" height="2.8"/>
<rect x="85" y="51" width="2.8" height="2.8"/>
<rect x="90.7" y="51" width="2.8" height="2.8"/>
<rect x="11.3" y="53.9" width="2.8" height="2.8"/>
<rect x="14.2" y="53.9" width="2.8" height="2.8"/>
<rect x="17" y="53.9" width="2.8" height="2.8"/>
<rect x="22.7" y="53.9" width="2.8" height="2.8"/>
<rect x="25.5" y="53.9" width="2.8" height="2.8"/>
<rect x="31.2" y="53.9" width="2.8" height="2.8"/>
<rect x="42.5" y="53.9" width="2.8" height="2.8"/>
<rect x="48.2" y="53.9" width="2.8" height="2.8"/>
<rect x="53.9" y="53.9" width="2.8" height="2.8"/>
<rect x="56.7" y="53.9" width="2.8" height="2.8"/>
<rect x="59.5" y="53.9" width="2.8" height="2.8"/>
<rect x="62.4" y="53.9" width="2.8" height="2.8"/>
<rect x="65.2" y="53.9" width="2.8" height="2.8"/>
<rect x="68" y="53.9" width="2.8" height="2.8"/>
<rect x="70.9" y="53.9" width="2.8" height="2.8"/>
<rect x="87.9" y="53.9" width="2.8" height="2.8"/>
<rect x="90.7" y="53.9" width="2.8" height="2.8"/>
<rect x="11.3" y="56.7" width="2.8" height="2.8"/>
<rect x="14.2" y="56.7" width="2.8" height="2.8"/>
<rect x="17" y="56.7" width="2.8" height="2.8"/>
<rect x="22.7" y="56.7" width="2.8" height="2.8"/>
<rect x="25.5" y="56.7" width="2.8" height="2.8"/>
<rect x="28.3" y="56.7" width="2.8" height="2.8"/>
<rect x="31.2" y="56.7" width="2.8" height="2.8"/>
<rect x="42.5" y="56.7" width="2.8" height="2.8"/>
<rect x="48.2" y="56.7" width="2.8" height="2.8"/>
<rect x="59.5" y="56.7" width="2.8" height="2.8"/>
<rect x="68" y="56.7" width="2.8" height="2.8"/>
<rect x="76.5" y="56.7" width="2.8" height="2.8"/>
<rect x="87.9" y="56.7" width="2.8" height="2.8"/>
<rect x="11.3" y="59.5" width="2.8" height="2.8"/>
<rect x="22.7" y="59.5" width="2.8" height="2.8"/>
<rect x="25.5" y="59.5" width="2.8" height="2.8"/>
<rect x="34" y="59.5" width="2.8" height="2.8"/>
<rect x="36.9" y="59.5" width="2.8" height="2.8"/>
<rect x="48.2" y="59.5" width="2.8" height="2.8"/>
<rect x="51" y="59.5" width="2.8" height="2.8"/>
<rect x="56.7" y="59.5" width="2.8" height="2.8"/>
<rect x="59.5" y="59.5" width="2.8" height="2.8"/>
<rect x="62.4" y="59.5" width="2.8" height="2.8"/>
<rect x="68" y="59.5" width="2.8" height="2.8"/>
<rect x="73.7" y="59.5" width="2.8" height="2.8"/>
<rect x="76.5" y="59.5" width="2.8" height="2.8"/>
<rect x="79.4" y="59.5" width="2.8" height="2.8"/>
<rect x="82.2" y="59.5" width="2.8" height="2.8"/>
<rect x="87.9" y="59.5" width="2.8" height="2.8"/>
<rect x="90.7" y="59.5" width="2.8" height="2.8"/>
<rect x="17" y="62.4" width="2.8" height="2.8"/>
<rect x="28.3" y="62.4" width="2.8" height="2.8"/>
<rect x="31.2" y="62.4" width="2.8" height="2.8"/>
<rect x="36.9" y="62.4" width="2.8" height="2.8"/>
<rect x="39.7" y="62.4" width="2.8" height="2.8"/>
<rect x="42.5" y="62.4" width="2.8" height="2.8"/>
<rect x="45.4" y="62.4" width="2.8" height="2.8"/>
<rect x="56.7" y="62.4" width="2.8" height="2.8"/>
<rect x="62.4" y="62.4" width="2.8" height="2.8"/>
<rect x="68" y="62.4" width="2.8" height="2.8"/>
<rect x="85" y="62.4" width="2.8" height="2.8"/>
<rect x="90.7" y="62.4" width="2.8" height="2.8"/>
<rect x="17" y="65.2" width="2.8" height="2.8"/>
<rect x="22.7" y="65.2" width="2.8" height="2.8"/>
<rect x="25.5" y="65.2" width="2.8" height="2.8"/>
<rect x="36.9" y="65.2" width="2.8" height="2.8"/>
<rect x="42.5" y="65.2" width="2.8" height="2.8"/>
<rect x="51" y="65.2" width="2.8" height="2.8"/>
<rect x="59.5" y="65.2" width="2.8" height="2.8"/>
<rect x="68" y="65.2" width="2.8" height="2.8"/>
<rect x="70.9" y="65.2" width="2.8" height="2.8"/>
<rect x="76.5" y="65.2" width="2.8" height="2.8"/>
<rect x="79.4" y="65.2" width="2.8" height="2.8"/>
<rect x="87.9" y="65.2" width="2.8" height="2.8"/>
<rect x="90.7" y="65.2" width="2.8" height="2.8"/>
<rect x="11.3" y="68" width="2.8" height="2.8"/>
<rect x="14.2" y="68" width="2.8" height="2.8"/>
<rect x="19.8" y="68" width="2.8" height="2.8"/>
<rect x="22.7" y="68" width="2.8" height="2.8"/>
<rect x="28.3" y="68" width="2.8" height="2.8"/>
<rect x="31.2" y="68" width="2.8" height="2.8"/>
<rect x="34" y="68" width="2.8" height="2.8"/>
<rect x="36.9" y="68" width="2.8" height="2.8"/>
<rect x="39.7" y="68" width="2.8" height="2.8"/>
<rect x="42.5" y="68" width="2.8" height="2.8"/>
<rect x="48.2" y="68" width="2.8" height="2.8"/>
<rect x="51" y="68" width="2.8" height="2.8"/>
<rect x="53.9" y="68" width="2.8" height="2.8"/>
<rect x="56.7" y="68" width="2.8" height="2.8"/>
<rect x="62.4" y="68" width="2.8" height="2.8"/>
<rect x="68" y="68" width="2.8" height="2.8"/>
<rect x="70.9" y="68" width="2.8" height="2.8"/>
<rect x="73.7" y="68" width="2.8" height="2.8"/>
<rect x="76.5" y="68" width="2.8" height="2.8"/>
<rect x="79.4" y="68" width="2.8" height="2.8"/>
<rect x="82.2" y="68" width="2.8" height="2.8"/>
<rect x="90.7" y="68" width="2.8" height="2.8"/>
<rect x="34" y="70.9" width="2.8" height="2.8"/>
<rect x="39.7" y="70.9" width="2.8" height="2.8"/>
<rect x="59.5" y="70.9" width="2.8" height="2.8"/>
<rect x="62.4" y="70.9" width="2.8" height="2.8"/>
<rect x="65.2" y="70.9" width="2.8" height="2.8"/>
<rect x="68" y="70.9" width="2.8" height="2.8"/>
<rect x="79.4" y="70.9" width="2.8" height="2.8"/>
<rect x="90.7" y="70.9" width="2.8" height="2.8"/>
<rect x="11.3" y="73.7" width="2.8" height="2.8"/>
<rect x="14.2" y="73.7" width="2.8" height="2.8"/>
<rect x="17" y="73.7" width="2.8" height="2.8"/>
<rect x="19.8" y="73.7" width="2.8" height="2.8"/>
<rect x="22.7" y="73.7" width="2.8" height="2.8"/>
<rect x="25.5" y="73.7" width="2.8" height="2.8"/>
<rect x="28.3" y="73.7" width="2.8" height="2.8"/>
<rect x="34" y="73.7" width="2.8" height="2.8"/>
<rect x="42.5" y="73.7" width="2.8" height="2.8"/>
<rect x="45.4" y="73.7" width="2.8" height="2.8"/>
<rect x="48.2" y="73.7" width="2.8" height="2.8"/>
<rect x="51" y="73.7" width="2.8" height="2.8"/>
<rect x="53.9" y="73.7" width="2.8" height="2.8"/>
<rect x="62.4" y="73.7" width="2.8" height="2.8"/>
<rect x="65.2" y="73.7" width="2.8" height="2.8"/>
<rect x="68" y="73.7" width="2.8" height="2.8"/>
<rect x="73.7" y="73.7" width="2.8" height="2.8"/>
<rect x="79.4" y="73.7" width="2.8" height="2.8"/>
<rect x="82.2" y="73.7" width="2.8" height="2.8"/>
<rect x="85" y="73.7" width="2.8" height="2.8"/>
<rect x="90.7" y="73.7" width="2.8" height="2.8"/>
<rect x="11.3" y="76.5" width="2.8" height="2.8"/>
<rect x="28.3" y="76.5" width="2.8" height="2.8"/>
<rect x="36.9" y="76.5" width="2.8" height="2.8"/>
<rect x="39.7" y="76.5" width="2.8" height="2.8"/>
<rect x="48.2" y="76.5" width="2.8" height="2.8"/>
<rect x="53.9" y="76.5" width="2.8" height="2.8"/>
<rect x="56.7" y="76.5" width="2.8" height="2.8"/>
<rect x="65.2" y="76.5" width="2.8" height="2.8"/>
<rect x="68" y="76.5" width="2.8" height="2.8"/>
<rect x="79.4" y="76.5" width="2.8" height="2.8"/>
<rect x="11.3" y="79.4" width="2.8" height="2.8"/>
<rect x="17" y="79.4" width="2.8" height="2.8"/>
<rect x="19.8" y="79.4" width="2.8" height="2.8"/>
<rect x="22.7" y="79.4" width="2.8" height="2.8"/>
<rect x="28.3" y="79.4" width="2.8" height="2.8"/>
<rect x="34" y="79.4" width="2.8" height="2.8"/>
<rect x="39.7" y="79.4" width="2.8" height="2.8"/>
<rect x="48.2" y="79.4" width="2.8" height="2.8"/>
<rect x="65.2" y="79.4" width="2.8" height="2.8"/>
<rect x="68" y="79.4" width="2.8" height="2.8"/>
<rect x="70.9" y="79.4" width="2.8" height="2.8"/>
<rect x="73.7" y="79.4" width="2.8" height="2.8"/>
<rect x="76.5" y="79.4" width="2.8" height="2.8"/>
<rect x="79.4" y="79.4" width="2.8" height="2.8"/>
<rect x="82.2" y="79.4" width="2.8" height="2.8"/>
<rect x="90.7" y="79.4" width="2.8" height="2.8"/>
<rect x="11.3" y="82.2" width="2.8" height="2.8"/>
<rect x="17" y="82.2" width="2.8" height="2.8"/>
<rect x="19.8" y="82.2" width="2.8" height="2.8"/>
<rect x="22.7" y="82.2" width="2.8" height="2.8"/>
<rect x="28.3" y="82.2" width="2.8" height="2.8"/>
<rect x="36.9" y="82.2" width="2.8" height="2.8"/>
<rect x="39.7" y="82.2" width="2.8" height="2.8"/>
<rect x="42.5" y="82.2" width="2.8" height="2.8"/>
<rect x="45.4" y="82.2" width="2.8" height="2.8"/>
<rect x="48.2" y="82.2" width="2.8" height="2.8"/>
<rect x="51" y="82.2" width="2.8" height="2.8"/>
<rect x="56.7" y="82.2" width="2.8" height="2.8"/>
<rect x="62.4" y="82.2" width="2.8" height="2.8"/>
<rect x="70.9" y="82.2" width="2.8" height="2.8"/>
<rect x="87.9" y="82.2" width="2.8" height="2.8"/>
<rect x="11.3" y="85" width="2.8" height="2.8"/>
<rect x="17" y="85" width="2.8" height="2.8"/>
<rect x="19.8" y="85" width="2.8" height="2.8"/>
<rect x="22.7" y="85" width="2.8" height="2.8"/>
<rect x="28.3" y="85" width="2.8" height="2.8"/>
<rect x="36.9" y="85" width="2.8" height="2.8"/>
<rect x="45.4" y="85" width="2.8" height="2.8"/>
<rect x="56.7" y="85" width="2.8" height="2.8"/>
<rect x="59.5" y="85" width="2.8" height="2.8"/>
<rect x="65.2" y="85" width="2.8" height="2.8"/>
<rect x="68" y="85" width="2.8" height="2.8"/>
<rect x="70.9" y="85" width="2.8" height="2.8"/>
<rect x="82.2" y="85" width="2.8" height="2.8"/>
<rect x="85" y="85" width="2.8" height="2.8"/>
<rect x="87.9" y="85" width="2.8" height="2.8"/>
<rect x="90.7" y="85" width="2.8" height="2.8"/>
<rect x="11.3" y="87.9" width="2.8" height="2.8"/>
<rect x="28.3" y="87.9" width="2.8" height="2.8"/>
<rect x="36.9" y="87.9" width="2.8" height="2.8"/>
<rect x="39.7" y="87.9" width="2.8" height="2.8"/>
<rect x="45.4" y="87.9" width="2.8" height="2.8"/>
<rect x="48.2" y="87.9" width="2.8" height="2.8"/>
<rect x="51" y="87.9" width="2.8" height="2.8"/>
<rect x="59.5" y="87.9" width="2.8" height="2.8"/>
<rect x="62.4" y="87.9" width="2.8" height="2.8"/>
<rect x="68" y="87.9" width="2.8" height="2.8"/>
<rect x="70.9" y="87.9" width="2.8" height="2.8"/>
<rect x="73.7" y="87.9" width="2.8" height="2.8"/>
<rect x="79.4" y="87.9" width="2.8" height="2.8"/>
<rect x="82.2" y="87.9" width="2.8" height="2.8"/>
<rect x="87.9" y="87.9" width="2.8" height="2.8"/>
<rect x="90.7" y="87.9" width="2.8" height="2.8"/>
<rect x="11.3" y="90.7" width="2.8" height="2.8"/>
<rect x="14.2" y="90.7" width="2.8" height="2.8"/>
<rect x="17" y="90.7" width="2.8" height="2.8"/>
<rect x="19.8" y="90.7" width="2.8" height="2.8"/>
<rect x="22.7" y="90.7" width="2.8" height="2.8"/>
<rect x="25.5" y="90.7" width="2.8" height="2.8"/>
<rect x="28.3" y="90.7" width="2.8" height="2.8"/>
<rect x="34" y="90.7" width="2.8" height="2.8"/>
<rect x="36.9" y="90.7" width="2.8" height="2.8"/>
<rect x="39.7" y="90.7" width="2.8" height="2.8"/>
<rect x="45.4" y="90.7" width="2.8" height="2.8"/>
<rect x="48.2" y="90.7" width="2.8" height="2.8"/>
<rect x="53.9" y="90.7" width="2.8" height="2.8"/>
<rect x="56.7" y="90.7" width="2.8" height="2.8"/>
<rect x="62.4" y="90.7" width="2.8" height="2.8"/>
<rect x="68" y="90.7" width="2.8" height="2.8"/>
<rect x="70.9" y="90.7" width="2.8" height="2.8"/>
<rect x="73.7" y="90.7" width="2.8" height="2.8"/>
<rect x="76.5" y="90.7" width="2.8" height="2.8"/>
<rect x="79.4" y="90.7" width="2.8" height="2.8"/>
<rect x="82.2" y="90.7" width="2.8" height="2.8"/>
<rect x="87.9" y="90.7" width="2.8" height="2.8"/>
<circle class="st0" cx="51" cy="51" r="8.5"/>
<path class="st1" d="M51,44.5c-3.6,0-6.5,2.9-6.5,6.5c0,2.9,1.9,5.3,4.5,6.2c0.3,0.1,0.4-0.1,0.4-0.3c0-0.2,0-0.6,0-1.1
	c-1.8,0.4-2.2-0.9-2.2-0.9c-0.3-0.8-0.7-1-0.7-1c-0.6-0.4,0-0.4,0-0.4c0.7,0,1,0.7,1,0.7c0.6,1,1.5,0.7,1.9,0.5
	c0.1-0.4,0.2-0.7,0.4-0.9c-1.4-0.2-3-0.7-3-3.2c0-0.7,0.3-1.3,0.7-1.8c-0.1-0.2-0.3-0.8,0.1-1.7c0,0,0.5-0.2,1.8,0.7
	c0.5-0.1,1.1-0.2,1.6-0.2c0.6,0,1.1,0.1,1.6,0.2c1.2-0.8,1.8-0.7,1.8-0.7c0.4,0.9,0.1,1.6,0.1,1.7c0.4,0.5,0.7,1,0.7,1.8
	c0,2.5-1.5,3.1-3,3.2c0.2,0.2,0.4,0.6,0.4,1.2c0,0.9,0,1.6,0,1.8c0,0.2,0.1,0.4,0.4,0.3c2.6-0.9,4.5-3.3,4.5-6.2
	C57.6,47.4,54.6,44.5,51,44.5z"/>
</svg>
